<?xml version="1.0" encoding="UTF-8"?>
<svg id="Calque_2" data-name="Calque 2" xmlns="http://www.w3.org/2000/svg" viewBox="0 0 244.89 249.78">
  <defs>
    <style>
      .cls-1 {
        fill: #399;
      }

      .cls-1, .cls-2 {
        stroke-width: 0px;
      }

      .cls-2 {
        fill: #7cc4aa;
      }
    </style>
  </defs>
  <g id="Calque_1-2" data-name="Calque 1">
    <path class="cls-2" d="m244.89,124.89c0,68.97-54.82,124.89-122.44,124.89S0,193.86,0,124.89C0,95.8,9.75,69.03,26.1,47.8,48.52,18.7,83.34,0,122.44,0c67.62,0,122.44,55.91,122.44,124.89Z"/>
    <g>
      <polygon class="cls-1" points="187.31 18.95 187.31 18.95 187.31 18.96 187.31 18.95"/>
      <path class="cls-1" d="m122.44,249.78c67.62,0,122.44-55.91,122.44-124.89,0-44.67-23-83.85-57.57-105.93-2.55,11.36-50.27,48.12-58.88,86.37C100.44,229.78,0,124.89,0,124.89c0,68.97,54.82,124.89,122.44,124.89Z"/>
    </g>
  </g>
</svg>